<?xml version="1.0" standalone="no"?>
<!DOCTYPE svg PUBLIC "-//W3C//DTD SVG 20010904//EN"
 "http://www.w3.org/TR/2001/REC-SVG-20010904/DTD/svg10.dtd">
<svg version="1.0" xmlns="http://www.w3.org/2000/svg"
 width="100.000000pt" height="100.000000pt" viewBox="0 0 100.000000 100.000000"
 preserveAspectRatio="xMidYMid meet">
<metadata>
Created by potrace 1.14, written by Peter Selinger 2001-2017
</metadata>
<g transform="translate(0.000000,100.000000) scale(0.100000,-0.100000)"
fill="#000000" stroke="none">
<path d="M274 858 c-24 -11 -44 -48 -44 -79 0 -24 52 -79 74 -79 13 0 36 -28
36 -44 0 -3 -25 -6 -55 -6 -78 0 -105 -27 -105 -105 0 -52 -1 -55 -25 -55 -27
0 -25 5 -30 -104 -2 -66 8 -121 22 -121 16 0 28 -14 28 -33 2 -36 17 -60 46
-73 22 -9 103 -12 285 -12 240 0 256 1 282 20 19 14 28 31 30 56 3 29 7 37 23
37 28 0 37 32 35 135 -1 86 -2 89 -26 95 -22 5 -25 11 -25 50 -1 90 -18 104
-117 101 -53 -1 -56 0 -51 20 4 12 23 28 48 39 76 33 84 125 12 155 -38 16
-62 9 -87 -23 -29 -36 -22 -101 13 -124 7 -4 6 -17 -3 -38 l-13 -31 -126 3
-126 3 -16 29 c-15 27 -15 30 8 54 26 29 29 61 8 101 -21 41 -56 51 -101 29z
m67 -52 c13 -27 -2 -66 -26 -66 -17 0 -45 27 -45 45 0 18 28 45 46 45 8 0 19
-11 25 -24z m379 -5 c21 -39 -24 -85 -54 -55 -17 16 -20 33 -10 58 9 22 51 20
64 -3z m-445 -211 c23 -26 39 -26 25 0 -10 19 -7 19 67 17 59 -2 78 -7 79 -18
2 -30 6 -33 14 -11 5 12 17 22 26 22 14 0 15 -7 9 -47 -8 -55 8 -50 22 6 5 19
14 36 21 39 7 2 10 -2 6 -12 -3 -9 -1 -16 5 -16 7 0 14 7 17 15 5 12 25 15 93
15 85 -1 86 -1 64 -19 -38 -31 -26 -46 13 -16 19 15 38 25 41 22 3 -3 -4 -12
-16 -19 -12 -7 -21 -19 -21 -27 0 -12 3 -12 12 -3 7 7 19 12 27 12 13 -1 12
-3 -3 -15 -17 -13 -17 -15 -2 -30 20 -20 14 -65 -11 -82 -15 -12 -11 -17 10
-14 20 3 4 -28 -18 -33 -14 -4 -25 -11 -25 -16 0 -6 11 -8 25 -4 35 9 31 -5
-5 -17 -34 -12 -32 -29 3 -22 22 4 23 2 25 -53 2 -66 -5 -74 -62 -74 -29 0
-37 3 -33 15 9 23 -11 28 -23 5 -14 -27 -40 -27 -33 0 3 11 0 20 -6 20 -6 0
-11 -4 -11 -9 0 -32 -65 -42 -207 -32 -7 1 -10 8 -7 16 8 19 -10 19 -26 0 -7
-8 -19 -15 -27 -15 -12 0 -13 3 -3 15 6 8 10 20 8 27 -3 8 -11 2 -22 -15 -19
-29 -42 -37 -32 -12 7 20 -14 19 -28 -1 -7 -9 -18 -12 -29 -8 -23 9 -22 31 3
39 27 9 16 25 -13 18 -18 -5 -16 0 13 25 25 23 30 31 18 32 -9 0 -20 -5 -23
-10 -10 -17 -24 -2 -18 20 3 11 13 20 22 21 13 0 12 3 -5 15 -23 16 -22 57 1
48 7 -3 16 -1 19 5 4 5 -3 12 -14 16 -18 6 -20 14 -19 81 1 68 3 74 20 69 21
-7 25 5 7 23 -7 7 -8 12 -2 12 6 0 19 -9 29 -20z m-99 -192 c-2 -40 -4 -84 -5
-97 -2 -51 -22 -4 -23 55 -2 97 1 114 17 114 11 0 13 -14 11 -72z m676 55 c4
-15 4 -96 -1 -155 0 -10 -8 -18 -16 -18 -13 0 -15 14 -11 93 5 106 4 97 15 97
5 0 11 -8 13 -17z"/>
<path d="M315 460 c-40 -44 -2 -119 54 -105 35 9 52 35 46 70 -9 54 -65 73
-100 35z m70 -16 c22 -23 4 -73 -27 -74 -18 0 -47 40 -41 57 13 35 42 42 68
17z"/>
<path d="M590 462 c-14 -11 -22 -29 -22 -47 0 -29 31 -65 57 -65 23 0 65 41
65 64 0 57 -56 84 -100 48z m72 -28 c11 -23 10 -29 -11 -45 -29 -24 -61 -10
-61 26 0 45 54 59 72 19z"/>
<path d="M470 410 c0 -5 5 -10 10 -10 6 0 10 5 10 10 0 6 -4 10 -10 10 -5 0
-10 -4 -10 -10z"/>
<path d="M510 340 c0 -5 5 -10 10 -10 6 0 10 5 10 10 0 6 -4 10 -10 10 -5 0
-10 -4 -10 -10z"/>
<path d="M410 271 c0 -10 94 -18 143 -13 58 7 23 19 -58 21 -49 1 -85 -2 -85
-8z"/>
</g>
</svg>
